<?xml version="1.0" encoding="UTF-8"?>
<svg id="_Слой_1" xmlns="http://www.w3.org/2000/svg" version="1.1" viewBox="0 0 3000 3000">
  <!-- Generator: Adobe Illustrator 30.3.0, SVG Export Plug-In . SVG Version: 2.1.3 Build 182)  -->
  <defs>
    <style>
      .st0 {
        fill: #080808;
      }

      .st1 {
        fill: #7c6540;
      }

      .st2 {
        fill: #c6a361;
      }
    </style>
  </defs>
  <rect class="st0" width="3000" height="3000"/>
  <g>
    <path class="st2" d="M656.18,146.43l2197.02,509.16-509.39,2197.98L146.8,2344.41,656.18,146.43ZM675.37,179.75L180.21,2324.67l2144.65,495.1,495.16-2144.92L675.37,179.75Z"/>
    <path class="st2" d="M1530.28,1127.22c21.04-19.39,41.6-27.31,70.77-40.45l-116.78-15.75c-72.85-9.82-184.56,7.19-251.66,42.1-169.07,91.67-166.26,274-104.24,448.11-62.57-62.94-105.04-138.2-119.53-222.98-20.31-118.87,31.22-229.94,137.23-284.91,58.05-30.1,117.75-41.99,185.81-50.47-69.64-12.83-129.53-19.65-195.72-53.45l88.42-28.51c86.63-27.93,176.23-35.18,266.01-17.03l136.95,27.68c-39.33-37.58-99.33-56.06-130.41-105.18,87.99,3.12,170.79,15.72,252.14,45.63,66.08,24.25,124.53,57.55,175.67,105.56l75.18,150.18c21.76,33.08,48.04,46.37,87.6,50.83,13.6,1.53,15.62,34.13,6.5,45.79-22.77,29.09-49.35,51.34-83.53,74.11.64-22.18,4.82-46.24-3.31-62.38-9.89-19.62-33.63-11.58-50.24-6.82-55.47,15.92-138-50.33-187.84-97.77,4.74,23.7,18.66,46.2,35.35,63.47l112.21,116.2c-133.85-92.6-266.56-174.02-435.06-139.29l48.48-44.68h0ZM1910.39,1086.53c-38.08-40.94-83.96-63.32-133.01-71.99,25.95,23.4,44.1,43.25,56.57,68.77l76.44,3.22h0Z"/>
    <path class="st2" d="M2023.73,1451.66c47.55-21.36,84.27-46.59,125.92-84.13l-37.17,102.31c-103.44,251.53-333.16,421.48-604.09,448.61-51.4,5.15-100.35,5.78-152.07.36-297.58-31.21-532.24-233.46-507.14-544.79,4.44-55.05,13.53-107.6,39.12-156.61,20.84-39.91,39.29-77.66,68.2-114.32-26.1,79.02-42.04,147.95-34.47,230.53,19.09,208.05,157.67,389.3,352.19,466.63,112.84,44.86,233.18,47.65,345.91,2.48,81.4-32.62,156.08-82.06,211.57-148.77l61.16-73.54c-69.38-21.95-134.55-45.56-178.15-105.23,91.93,52.93,208.32,21.73,309.02-23.51v-.02Z"/>
    <path class="st2" d="M1991.01,1961.01c-248.81,277.44-683.76,276.13-952.96,32.61-66.9-60.52-120.35-133.64-153.52-220.22,62.98,86.08,141.64,146.8,242,180.86,98.75,33.51,201.51,49.61,306.27,44.59,188.93-9.06,368.42-67.83,516.36-184.59,105.54-83.29,176.33-190.22,223.19-313.08-5.14,115.92-64.71,212.4-141.48,292.81-171.22,179.33-415.68,277.24-663.52,265.25-60.35-2.92-111.38-21.36-173.4-31.04,124.96,78.73,274.4,101.75,419.1,75.91,102.37-18.28,191.8-60.07,277.27-117.51,82.21-55.24,146.47-123.25,214.64-198.73-26.16,67.2-66.75,120.51-113.96,173.15h.01Z"/>
  </g>
  <path class="st1" d="M373.32,370.94l-1.89,2256.23,2255.24,1.89,1.89-2256.23-2255.24-1.89h0ZM399.54,2600.42l-.03-2201.33,2201.06-.03.03,2201.33-2201.06.03h0Z"/>
</svg>